<mxfile host="app.diagrams.net" modified="2024-07-18T12:42:42.837Z" agent="Mozilla/5.0 (X11; Linux x86_64; rv:128.0) Gecko/20100101 Firefox/128.0" version="24.7.1" etag="OPCkzYYW9-7VH3bzbVqM" type="github">
  <diagram name="Page-1" id="eELxZ1v0GHEpNrcVMBc3">
    <mxGraphModel>
      <root>
        <mxCell id="0" />
        <mxCell id="1" parent="0" />
      </root>
    </mxGraphModel>
  </diagram>
</mxfile>
